# xmcd CD database file
#
# Track frame offsets:
#	150
#	26910
#	45327
#	68680
#	89822
#	115029
#	135855
#	162957
#	187337
#
# Disc length: 2842 seconds
#
# Revision: 0
# Processed by: cddbd v1.5.2PL0 Copyright (c) Steve Scherf et al.
# Submitted via: CDex 1.51
#
DISCID=760b1809
DTITLE=Cesar Perez - Ciudadano Del Mundo
DYEAR=2007
DGENRE=Salsa
TTITLE0=Guataca Rica
TTITLE1=Dame Dos
TTITLE2=Perdóname
TTITLE3=La Azuquita
TTITLE4=Bolero Medley
TTITLE5=Sr. Salsa
TTITLE6=Tú eres la que manda
TTITLE7=Ciudadano Del Mundo
TTITLE8=Groovin' High
EXTD=YEAR: 2007
EXTT0=
EXTT1=
EXTT2=
EXTT3=
EXTT4=
EXTT5=
EXTT6=
EXTT7=
EXTT8=
PLAYORDER=
